<?xml version="1.0" standalone="no"?>
<!DOCTYPE svg PUBLIC "-//W3C//DTD SVG 20010904//EN"
 "http://www.w3.org/TR/2001/REC-SVG-20010904/DTD/svg10.dtd">
<svg version="1.0" xmlns="http://www.w3.org/2000/svg"
 width="512.000000pt" height="512.000000pt" viewBox="0 0 512.000000 512.000000"
 preserveAspectRatio="xMidYMid meet">
<metadata>
Created by potrace 1.11, written by Peter Selinger 2001-2013
</metadata>
<g transform="translate(0.000000,512.000000) scale(0.100000,-0.100000)"
fill="#000000" stroke="none">
<path d="M350 5032 c-163 -18 -294 -129 -336 -284 -21 -80 -19 -3277 2 -3358
35 -132 163 -249 301 -275 10 -2 372 -4 804 -4 l786 -1 -2 -48 c-5 -98 -35
-181 -92 -250 -36 -44 -229 -195 -309 -242 -63 -37 -90 -66 -114 -123 -58
-133 -1 -282 130 -341 44 -20 59 -20 1040 -20 988 0 995 0 1041 21 130 59 187
207 129 340 -25 60 -58 93 -127 131 -55 29 -191 127 -261 188 -76 65 -132 189
-132 291 l0 53 783 0 c873 0 855 -1 957 68 68 46 124 119 150 196 19 58 20 87
20 1690 0 1764 2 1684 -53 1779 -31 53 -90 111 -142 140 -95 53 39 51 -2340
51 -1215 1 -2221 0 -2235 -2z m4468 -187 c50 -21 108 -84 122 -134 6 -23 10
-513 10 -1348 l0 -1313 -2390 0 -2390 0 0 1321 c0 1445 -3 1358 58 1422 32 35
69 55 117 65 20 4 1024 7 2233 6 2080 -1 2199 -2 2240 -19z m132 -3179 c0
-201 -1 -213 -24 -262 -27 -58 -72 -97 -131 -113 -30 -9 -617 -11 -2262 -9
l-2221 3 -44 31 c-23 17 -55 53 -70 80 -26 48 -27 50 -28 265 l-1 216 2391 0
2390 0 0 -211z m-1913 -599 c3 -159 62 -301 173 -414 l52 -53 -29 -1 c-34 -1
-1365 -1 -1375 0 -3 1 19 27 51 59 106 107 174 269 173 415 l-1 37 478 0 477
0 1 -43z m507 -652 c23 -10 44 -59 38 -90 -2 -13 -15 -34 -28 -46 l-25 -23
-969 0 -969 0 -25 23 c-36 34 -36 91 0 124 l25 24 967 -2 c532 -1 975 -5 986
-10z"/>
<path d="M2015 4171 c-32 -13 -725 -712 -731 -737 -3 -12 -3 -33 1 -46 10 -31
719 -738 742 -739 62 -4 103 30 103 85 0 30 -29 63 -320 354 -176 176 -320
322 -320 325 0 2 144 149 320 325 296 296 320 323 320 355 0 62 -58 101 -115
78z"/>
<path d="M2704 4169 c-41 -15 -44 -24 -140 -414 -18 -77 -41 -165 -49 -195
-24 -89 -196 -782 -202 -814 -7 -40 14 -83 45 -94 31 -10 84 1 101 21 8 10
155 584 286 1117 2 8 20 80 40 160 20 80 33 155 30 167 -10 41 -69 68 -111 52z"/>
<path d="M3017 4155 c-20 -19 -27 -35 -27 -61 0 -34 19 -55 298 -334 163 -164
308 -310 321 -324 l24 -25 -322 -322 c-293 -293 -321 -324 -321 -355 0 -55 41
-89 103 -85 26 1 747 726 747 750 0 11 -4 30 -9 43 -8 21 -687 707 -721 728
-27 17 -65 11 -93 -15z"/>
</g>
</svg>
